<svg xmlns="http://www.w3.org/2000/svg" viewBox="0 0 200 200" width="200" height="200">
  <defs>
    <linearGradient id="bg" x1="0%" y1="0%" x2="100%" y2="100%">
      <stop offset="0%" style="stop-color:#0d1424"/>
      <stop offset="100%" style="stop-color:#1a2744"/>
    </linearGradient>
    <linearGradient id="accent" x1="0%" y1="0%" x2="100%" y2="100%">
      <stop offset="0%" style="stop-color:#f97316"/>
      <stop offset="100%" style="stop-color:#dc2626"/>
    </linearGradient>
  </defs>
  <rect width="200" height="200" rx="40" fill="url(#bg)"/>
  <!-- Gear outer -->
  <path d="M100 52 l8-12 h-16 l8 12 M100 148 l8 12 h-16 l8-12 M52 100 l-12-8 v16 l12-8 M148 100 l12-8 v16 l-12-8 M68 68 l-6-14 l-11 11 l14 6 M132 68 l6-14 l11 11 l-14 6 M68 132 l-6 14 l-11-11 l14-6 M132 132 l6 14 l11-11 l-14-6" fill="url(#accent)" opacity="0.8"/>
  <!-- Gear body -->
  <circle cx="100" cy="100" r="36" fill="url(#accent)"/>
  <!-- Gear center hole -->
  <circle cx="100" cy="100" r="16" fill="#0d1424"/>
  <!-- Center dot -->
  <circle cx="100" cy="100" r="6" fill="url(#accent)" opacity="0.6"/>
</svg>
