<svg xmlns="http://www.w3.org/2000/svg" viewBox="0 0 200 200" width="200" height="200"><defs><linearGradient id="coffeeGrad" x1="0%" y1="0%" x2="100%" y2="100%"><stop offset="0%" style="stop-color:#8B4513"/><stop offset="100%" style="stop-color:#D2691E"/></linearGradient></defs><circle cx="100" cy="100" r="95" fill="#FDF5E6"/><circle cx="100" cy="100" r="90" fill="#FAEBD7" stroke="#8B4513" stroke-width="3"/><path d="M60 70 L65 150 Q70 165 100 165 Q130 165 135 150 L140 70 Z" fill="url(#coffeeGrad)"/><ellipse cx="100" cy="70" rx="42" ry="12" fill="#A0522D"/><ellipse cx="100" cy="70" rx="38" ry="10" fill="#6F4E37"/><ellipse cx="100" cy="72" rx="35" ry="8" fill="#3E2723"/><path d="M140 85 Q165 85 165 110 Q165 135 140 135" fill="none" stroke="#8B4513" stroke-width="10" stroke-linecap="round"/><path d="M80 50 Q75 40 80 30" fill="none" stroke="#8B4513" stroke-width="3" opacity="0.6"/><path d="M100 45 Q95 35 100 25" fill="none" stroke="#8B4513" stroke-width="3" opacity="0.6"/><path d="M120 50 Q115 40 120 30" fill="none" stroke="#8B4513" stroke-width="3" opacity="0.6"/></svg>